Input #0, mov,mp4,m4a,3gp,3g2,mj2, from '/home/hbattu/projects/huberman-gpt/huberman-audio/mp3/tmp_x_mf87d.mp4':
  Metadata:
    major_brand     : dash
    minor_version   : 0
    compatible_brands: iso6mp41
    creation_time   : 2021-11-05T10:12:28.000000Z
  Duration: 02:00:31.32, start: 0.000000, bitrate: 129 kb/s
    Stream #0:0(und): Audio: aac (LC) (mp4a / 0x6134706D), 44100 Hz, stereo, fltp, 0 kb/s (default)
    Metadata:
      creation_time   : 2021-11-05T10:12:28.000000Z
      handler_name    : ISO Media file produced by Google Inc.
Stream mapping:
  Stream #0:0 -> #0:0 (aac (native) -> mp3 (libmp3lame))
Press [q] to stop, [?] for help
[graph_0_in_0_0 @ 0x563a48658080] tb:1/44100 samplefmt:fltp samplerate:44100 chlayout:0x3
Output #0, mp3, to '../huberman-audio/mp3/poOf8b2WE2g.mp3':
  Metadata:
    major_brand     : dash
    minor_version   : 0
    compatible_brands: iso6mp41
    TSSE            : Lavf58.29.100
    Stream #0:0(und): Audio: mp3 (libmp3lame), 44100 Hz, stereo, fltp, delay 1105 (default)
    Metadata:
      creation_time   : 2021-11-05T10:12:28.000000Z
      handler_name    : ISO Media file produced by Google Inc.
      encoder         : Lavc58.54.100 libmp3lame
No more output streams to write to, finishing.
size=  112990kB time=02:00:31.32 bitrate= 128.0kbits/s speed=86.8x    
[AVIOContext @ 0x563a48548900] Statistics: 0 seeks, 167 writeouts
video:0kB audio:112990kB subtitle:0kB other streams:0kB global headers:0kB muxing overhead: 0.000299%
Input file #0 (/home/hbattu/projects/huberman-gpt/huberman-audio/mp3/tmp_x_mf87d.mp4):
  Input stream #0:0 (audio): 311427 packets read (115701133 bytes); 311427 frames decoded (318901248 samples); 
  Total: 311427 packets (115701133 bytes) demuxed
Output file #0 (../huberman-audio/mp3/poOf8b2WE2g.mp3):
  Output stream #0:0 (audio): 276824 frames encoded (318901248 samples); 276825 packets muxed (115701551 bytes); 
  Total: 276825 packets (115701551 bytes) muxed
[AVIOContext @ 0x563a48573480] Statistics: 2 seeks, 443 writeouts
[AVIOContext @ 0x563a48551880] Statistics: 117031605 bytes read, 0 seeks
